<svg version="1.1" id="Capa_1" xmlns="http://www.w3.org/2000/svg" xmlns:xlink="http://www.w3.org/1999/xlink" x="0px" y="0px"
	 viewBox="0 0 512 512" style="enable-background:new 0 0 512 512;" xml:space="preserve">
<path style="fill:#F0F0FA;" d="M472,384.083H40c-16.569,0-30-13.431-30-30V40.001c0-16.569,13.431-30,30-30h432
	c16.569,0,30,13.431,30,30v314.083C502,370.653,488.569,384.083,472,384.083z"/>
<rect x="207" y="385.081" style="fill:#BEBEBE;" width="96" height="68.917"/>
<path style="fill:#F0F0FA;" d="M309.333,454H202.667c-26.51,0-48,21.49-48,48l0,0h202.667l0,0
	C357.333,475.49,335.843,454,309.333,454z"/>
<rect x="50" y="50.081" style="fill:#C8F5FF;" width="412" height="270"/>
<path d="M400,374.081c-2.63,0-5.21,1.07-7.07,2.93c-1.86,1.86-2.93,4.44-2.93,7.07s1.07,5.21,2.93,7.07
	c1.86,1.87,4.44,2.93,7.07,2.93s5.21-1.06,7.07-2.93c1.86-1.86,2.93-4.44,2.93-7.07s-1.07-5.21-2.93-7.07
	C405.21,375.15,402.63,374.081,400,374.081z"/>
<path d="M472,0.001H40c-22.056,0-40,17.944-40,40v314.083c0,22.056,17.944,40,40,40h157v50.197
	c-29.332,2.858-52.333,27.65-52.333,57.719c0,5.523,4.477,10,10,10h202.667c5.523,0,10-4.477,10-10
	c0-30.749-24.055-55.972-54.333-57.872v-50.044h46.667c5.523,0,10-4.477,10-10s-4.477-10-10-10H40c-11.028,0-20-8.972-20-20V40.001
	c0-11.028,8.972-20,20-20h432c11.028,0,20,8.972,20,20v314.083c0,11.028-8.972,20-20,20h-37.333c-5.523,0-10,4.477-10,10
	s4.477,10,10,10H472c22.056,0,40-17.944,40-40V40.001C512,17.945,494.056,0.001,472,0.001z M345.999,492H166.001
	c4.4-16.118,19.171-28,36.665-28h106.667C326.827,464,341.598,475.883,345.999,492z M293,444h-76v-49.917h76V444z"/>
<path d="M247.93,345.01c-1.86,1.86-2.93,4.44-2.93,7.07c0,2.64,1.07,5.21,2.93,7.07c1.86,1.87,4.44,2.93,7.07,2.93
	s5.21-1.06,7.07-2.93c1.86-1.86,2.93-4.43,2.93-7.07c0-2.63-1.07-5.21-2.93-7.07c-1.86-1.86-4.44-2.93-7.07-2.93
	S249.79,343.151,247.93,345.01z"/>
<path d="M195.193,120.177c-3.905-3.905-10.237-3.905-14.143,0l-56.066,56.066c-3.905,3.905-3.905,10.237,0,14.143l56.066,56.066
	c1.953,1.953,4.512,2.929,7.071,2.929s5.119-0.976,7.071-2.929c3.905-3.905,3.905-10.237,0-14.143l-48.996-48.995l48.996-48.995
	C199.098,130.413,199.098,124.082,195.193,120.177z"/>
<path d="M316.807,246.452c1.953,1.953,4.512,2.929,7.071,2.929s5.119-0.976,7.071-2.929l56.066-56.066
	c3.905-3.905,3.905-10.237,0-14.143l-56.066-56.066c-3.905-3.905-10.237-3.905-14.143,0c-3.905,3.905-3.905,10.237,0,14.143
	l48.996,48.995l-48.996,48.995C312.902,236.215,312.902,242.547,316.807,246.452z"/>
<path d="M238.442,252.579c0.867,0.232,1.738,0.343,2.595,0.343c4.415,0,8.456-2.947,9.653-7.414l29.938-111.731
	c1.43-5.335-1.736-10.818-7.071-12.248c-5.334-1.432-10.818,1.737-12.248,7.071l-29.938,111.731
	C229.942,245.667,233.108,251.15,238.442,252.579z"/>
<path d="M472,320.083v-270c0-5.523-4.477-10-10-10H303c-5.523,0-10,4.477-10,10s4.477,10,10,10h149v250H60v-250h153.5
	c5.523,0,10-4.477,10-10s-4.477-10-10-10H50c-5.523,0-10,4.477-10,10v270c0,5.523,4.477,10,10,10h412
	C467.523,330.083,472,325.607,472,320.083z"/>
<path d="M265.07,57.161c1.86-1.87,2.93-4.44,2.93-7.08c0-2.63-1.07-5.21-2.93-7.07s-4.44-2.93-7.07-2.93s-5.21,1.07-7.07,2.93
	s-2.93,4.44-2.93,7.07s1.07,5.21,2.93,7.08c1.86,1.86,4.44,2.92,7.07,2.92S263.21,59.021,265.07,57.161z"/>
</svg>
